<?xml version="1.0" encoding="UTF-8"?>
<svg id="Layer_1" data-name="Layer 1" xmlns="http://www.w3.org/2000/svg" viewBox="0 0 128 94.07">
  <path d="M110.62,73.11c1.53-1.4,4.43-4.71,5.1-5.35,3.37,2.82,10.62,9.26,11.46,10.18-1.29,1.72-5.57,5.34-6.88,6.46-4.18,3.54-8.63,6.37-13.89,7.92-5.62,1.65-11.46,1.73-17.28,1.77-10.31.06-16.6-2.85-23.85-9.95-6.2-6.08-10.2-15.83-14.01-23.65-3.01-6.2-11.85-26.32-12.83-26.11-1.17,1.66-8.23,18.48-8.65,21.1.09.26,10.13.14,14.27.41,1.46,2.1,6.61,14.99,6.47,15.15-.76-.07-19.58-.19-26.28,0-1.56.04-1.92.69-2.57,2.01-1.11,2.25-7.46,16.18-7.8,17.33-1.49-.7-13.44-.48-13.88-.72C.41,88.5,37.69,1.96,38.37,0c.41-.31,17.17,39.83,21.86,51.37,3.37,8.3,8.5,18.27,15.81,23.71,9.53,7.09,25.84,6.05,34.58-1.98ZM85.72,5.9c-8.35,1.47-14.48,4.11-21.08,9.42-2.73,2.2-9.48,9.52-9.48,9.52,1.25,2.69,8.13,18.98,9.05,20.86.08-.63.28-1.75.39-2.35,1.48-7.9,6.15-14.27,12.87-18.49,12.18-7.66,26.95-5.72,36.43,5.21.44.51,1.96,2.47,2.14,2.45.22-.02,11.72-9.37,11.96-9.68-.81-.93-1.19-1.34-1.8-1.98-10.53-11.02-24.93-17.68-40.47-14.95Z"/>
</svg>